<svg width="192" height="48" viewBox="0 0 192 48" fill="none" xmlns="http://www.w3.org/2000/svg">
<g clip-path="url(#clip0_157_1413)">
<path d="M24.0001 34.54L32.3001 39.56C33.8201 40.48 35.6801 39.12 35.2801 37.4L33.0801 27.96L40.4201 21.6C41.7601 20.44 41.0401 18.24 39.2801 18.1L29.6201 17.28L25.8401 8.36002C25.1601 6.74002 22.8401 6.74002 22.1601 8.36002L18.3801 17.26L8.72015 18.08C6.96015 18.22 6.24015 20.42 7.58015 21.58L14.9201 27.94L12.7201 37.38C12.3201 39.1 14.1801 40.46 15.7001 39.54L24.0001 34.54Z" fill="#FDD835"/>
</g>
<g clip-path="url(#clip1_157_1413)">
<path d="M111.3 18.08L101.62 17.24L97.8401 8.34C97.1601 6.72 94.8401 6.72 94.1601 8.34L90.3801 17.26L80.7201 18.08C78.9601 18.22 78.2401 20.42 79.5801 21.58L86.9201 27.94L84.7201 37.38C84.3201 39.1 86.1801 40.46 87.7001 39.54L96.0001 34.54L104.3 39.56C105.82 40.48 107.68 39.12 107.28 37.4L105.08 27.94L112.42 21.58C113.76 20.42 113.06 18.22 111.3 18.08ZM96.0001 30.8L88.4801 35.34L90.4801 26.78L83.8401 21.02L92.6001 20.26L96.0001 12.2L99.4201 20.28L108.18 21.04L101.54 26.8L103.54 35.36L96.0001 30.8Z" fill="#FDD835"/>
</g>
<g clip-path="url(#clip2_157_1413)">
<path d="M183.3 18.08L173.62 17.24L169.84 8.34C169.16 6.72 166.84 6.72 166.16 8.34L162.38 17.26L152.72 18.08C150.96 18.22 150.24 20.42 151.58 21.58L158.92 27.94L156.72 37.38C156.32 39.1 158.18 40.46 159.7 39.54L168 34.54L176.3 39.56C177.82 40.48 179.68 39.12 179.28 37.4L177.08 27.94L184.42 21.58C185.76 20.42 185.06 18.22 183.3 18.08ZM168 30.8L160.48 35.34L162.48 26.78L155.84 21.02L164.6 20.26L168 12.2L171.42 20.28L180.18 21.04L173.54 26.8L175.54 35.36L168 30.8Z" fill="#FDD835"/>
</g>
<defs>
<clipPath id="clip0_157_1413">
<rect width="48" height="48" fill="white"/>
</clipPath>
<clipPath id="clip1_157_1413">
<rect width="48" height="48" fill="white" transform="translate(72)"/>
</clipPath>
<clipPath id="clip2_157_1413">
<rect width="48" height="48" fill="white" transform="translate(144)"/>
</clipPath>
</defs>
</svg>
