<svg width="192" height="48" viewBox="0 0 192 48" fill="none" xmlns="http://www.w3.org/2000/svg">
<g clip-path="url(#clip0_157_1425)">
<path d="M24.0001 34.54L32.3001 39.56C33.8201 40.48 35.6801 39.12 35.2801 37.4L33.0801 27.96L40.4201 21.6C41.7601 20.44 41.0401 18.24 39.2801 18.1L29.6201 17.28L25.8401 8.36002C25.1601 6.74002 22.8401 6.74002 22.1601 8.36002L18.3801 17.26L8.72015 18.08C6.96015 18.22 6.24015 20.42 7.58015 21.58L14.9201 27.94L12.7201 37.38C12.3201 39.1 14.1801 40.46 15.7001 39.54L24.0001 34.54Z" fill="#FDD835"/>
</g>
<g clip-path="url(#clip1_157_1425)">
<path d="M96.0001 34.54L104.3 39.56C105.82 40.48 107.68 39.12 107.28 37.4L105.08 27.96L112.42 21.6C113.76 20.44 113.04 18.24 111.28 18.1L101.62 17.28L97.8401 8.36002C97.1601 6.74002 94.8401 6.74002 94.1601 8.36002L90.3801 17.26L80.7201 18.08C78.9601 18.22 78.2401 20.42 79.5801 21.58L86.9201 27.94L84.7201 37.38C84.3201 39.1 86.1801 40.46 87.7001 39.54L96.0001 34.54Z" fill="#FDD835"/>
</g>
<g clip-path="url(#clip2_157_1425)">
<path d="M168 34.54L176.3 39.56C177.82 40.48 179.68 39.12 179.28 37.4L177.08 27.96L184.42 21.6C185.76 20.44 185.04 18.24 183.28 18.1L173.62 17.28L169.84 8.36002C169.16 6.74002 166.84 6.74002 166.16 8.36002L162.38 17.26L152.72 18.08C150.96 18.22 150.24 20.42 151.58 21.58L158.92 27.94L156.72 37.38C156.32 39.1 158.18 40.46 159.7 39.54L168 34.54Z" fill="#FDD835"/>
</g>
<defs>
<clipPath id="clip0_157_1425">
<rect width="48" height="48" fill="white"/>
</clipPath>
<clipPath id="clip1_157_1425">
<rect width="48" height="48" fill="white" transform="translate(72)"/>
</clipPath>
<clipPath id="clip2_157_1425">
<rect width="48" height="48" fill="white" transform="translate(144)"/>
</clipPath>
</defs>
</svg>
