<svg width="169" height="169" viewBox="0 0 169 169" fill="none" xmlns="http://www.w3.org/2000/svg">
<mask id="mask0_157_1543" style="mask-type:luminance" maskUnits="userSpaceOnUse" x="0" y="0" width="169" height="169">
<path d="M168.875 0H0.125V168.75H168.875V0Z" fill="white"/>
</mask>
<g mask="url(#mask0_157_1543)">
<path d="M21.3278 66.4557C24.4348 65.7867 27.4957 67.7628 28.1653 70.8692C28.8343 73.9762 26.8582 77.0381 23.7513 77.7071C20.6443 78.3767 17.5829 76.4001 16.9133 73.2931C16.2443 70.1862 18.2209 67.1247 21.3278 66.4557Z" fill="#FF6D83"/>
<path d="M142.893 48.468C145.955 47.8088 148.971 49.7553 149.63 52.8166C150.29 55.8779 148.343 58.8938 145.282 59.5535C142.22 60.2126 139.204 58.2661 138.545 55.2049C137.886 52.1436 139.833 49.1272 142.893 48.468Z" fill="#0373E3"/>
<path d="M87.8614 13.6589C91.0597 12.9702 94.2107 15.0044 94.8994 18.2022C95.5886 21.4005 93.5539 24.5525 90.3556 25.2412C87.1572 25.9305 84.0063 23.8958 83.3171 20.6974C82.6284 17.4991 84.6631 14.3476 87.8614 13.6589Z" fill="#FFB636"/>
<path d="M58.9454 138.892C62.1437 138.203 65.2942 140.237 65.9834 143.435C66.6721 146.633 64.6384 149.784 61.4401 150.474C58.2417 151.162 55.0903 149.129 54.4011 145.93C53.7123 142.732 55.747 139.58 58.9454 138.892Z" fill="#0373E3"/>
<path d="M139.875 111.148C143.119 110.45 146.315 112.513 147.014 115.757C147.713 119.001 145.649 122.197 142.405 122.896C139.161 123.595 135.965 121.531 135.266 118.287C134.567 115.043 136.631 111.847 139.875 111.148Z" fill="#BDA3FF"/>
<path d="M97.457 36.0185C124.164 43.1746 140.012 70.6258 132.857 97.3321C125.7 124.039 98.2484 139.888 71.542 132.731C44.8356 125.575 28.9866 98.1241 36.1433 71.4178C43.2989 44.7108 70.75 28.8624 97.457 36.0185Z" fill="#FDD835"/>
<path d="M76.2032 103.397C75.6321 103.913 74.7532 103.876 74.2271 103.314L56.0548 83.9074C55.433 83.1311 55.1319 82.1528 55.2118 81.169C55.2915 80.1842 55.7469 79.2673 56.4865 78.5992C57.2261 77.9316 58.1955 77.5631 59.2005 77.5669C60.2059 77.5707 61.173 77.9469 61.9094 78.6211L75.006 92.6072C75.3563 92.9815 75.9425 93.0057 76.3231 92.6618L103.79 67.8603C104.58 67.2504 105.576 66.956 106.578 67.0367C107.58 67.1168 108.514 67.5649 109.195 68.2929C109.876 69.0194 110.253 69.9725 110.251 70.9598C110.248 71.9471 109.867 72.8962 109.182 73.6186L76.2032 103.397Z" fill="white"/>
<path d="M45.0971 32.4396C43.8611 28.986 41.2829 24.8934 35.9136 22.4728" stroke="#FF6E83" stroke-width="2.97372" stroke-linecap="round"/>
<path d="M36.8332 133.32C36.3585 133.25 35.8427 133.154 35.2813 133.031C23.7501 130.5 34.0157 140.484 34.0157 140.484C34.0157 140.484 37.4289 147.184 29.0342 143.445" stroke="#BEA4FF" stroke-width="2.8125" stroke-linecap="round"/>
<path d="M136.123 28.588C138.191 29.366 140.357 31.4543 142.483 35.5853C150.166 50.513 128.576 45.0634 135.576 34.2919" stroke="#FFB636" stroke-width="2.54285" stroke-linecap="round"/>
<path d="M120.24 135.523C121.517 137.628 124.055 139.841 128.938 141.469C130.244 141.904 131.377 142.34 132.358 142.77" stroke="#213262" stroke-width="2.8125" stroke-linecap="round"/>
</g>
</svg>
