<svg width="58" height="63" viewBox="0 0 58 63" fill="none" xmlns="http://www.w3.org/2000/svg">
<path d="M45.3182 57.6476H8.32666C8.32666 47.9983 16.149 40.176 25.7983 40.176H27.8466C37.4958 40.176 45.3182 47.9983 45.3182 57.6476Z" fill="#FDD835"/>
<path d="M39.6944 33.1514C39.6944 38.4925 34.798 42.8223 28.7579 42.8223C22.7178 42.8223 17.8213 38.4925 17.8213 33.1514C17.8213 27.8103 22.7178 23.4805 28.7579 23.4805C34.798 23.4805 39.6944 27.8103 39.6944 33.1514Z" fill="#CCAC8F"/>
<path d="M41.9106 39.443C41.9106 42.428 40.5112 48.5161 37.5299 52.4305C36.8456 53.3292 35.9943 53.1998 34.8006 52.1648C34.4287 54.4336 32.7356 56.0398 31.2468 56.0398C30.2899 56.0398 28.6581 55.4155 27.3393 52.7361C27.0543 53.3692 25.2668 53.9373 24.2368 53.3692C18.3993 50.1498 13.8206 44.2017 13.8206 39.443C13.8206 36.2686 15.6745 32.7755 18.3964 30.0486C18.3401 30.4436 18.2749 30.8461 18.2749 31.2542C18.2749 34.5961 20.2268 37.5298 23.1668 39.1948C23.8581 36.4392 26.9068 34.363 30.5624 34.363C33.2468 34.363 35.6031 35.4823 36.9393 37.168C38.4049 35.553 39.2831 33.4948 39.2831 31.2542C39.2831 30.9892 39.2706 30.7273 39.2462 30.468C40.9187 32.7855 41.9106 35.8167 41.9106 39.443Z" fill="white"/>
<path d="M39.493 23.594H39.2725L30.7623 1.90358C30.5415 1.34083 29.9986 0.970703 29.394 0.970703C28.7895 0.970703 28.2467 1.34083 28.0259 1.90358L19.5157 23.594H19.2952C17.8338 23.594 16.6492 24.7787 16.6492 26.24V27.6512C16.6492 29.1126 17.8338 30.2972 19.2952 30.2972H39.493C40.9544 30.2972 42.139 29.1126 42.139 27.6512V26.24C42.139 24.7787 40.9544 23.594 39.493 23.594Z" fill="#FDD835"/>
<g style="mix-blend-mode:multiply">
<path d="M38.8474 22.5081H19.9406L19.5156 23.5941H39.2504L38.8474 22.5081Z" fill="#999999"/>
</g>
<path d="M23.8713 15.3845L25.243 13.9818C25.4331 13.7873 25.7068 13.699 25.9747 13.7454L27.9078 14.0801C28.5826 14.197 29.0985 13.4894 28.7808 12.8828L27.8706 11.1447C27.7445 10.9038 27.745 10.6163 27.8718 10.3758L28.7876 8.6407C29.1073 8.03508 28.5937 7.32589 27.9186 7.44052L25.9844 7.76914C25.8971 7.78395 25.8094 7.78302 25.7241 7.7702L22.7234 15.4181C23.032 15.6966 23.5375 15.7258 23.8713 15.3845Z" fill="#EAEAAD"/>
<path d="M34.9219 14.4601L34.5037 15.7698C34.4458 15.9513 34.3022 16.0927 34.1199 16.1479L32.8039 16.5459C32.3446 16.6849 32.2439 17.2902 32.6336 17.5702L33.75 18.3726C33.9047 18.4838 33.9949 18.6641 33.991 18.8546L33.9629 20.2291C33.9531 20.7088 34.4977 20.9916 34.8844 20.7075L35.9925 19.8937C36.1461 19.7809 36.3454 19.7509 36.5253 19.8135L37.8239 20.2649C37.8759 20.2831 37.9275 20.2925 37.9782 20.2959L35.5316 14.0603C35.2771 14.0359 35.0119 14.1782 34.9219 14.4601Z" fill="#EAEAAD"/>
<path d="M24.9083 30.8948C24.1818 30.8948 23.5928 31.4837 23.5928 32.2103V32.885C23.5928 33.6116 24.1818 34.2005 24.9083 34.2005C25.6348 34.2005 26.2238 33.6116 26.2238 32.885V32.2103C26.2238 31.4837 25.6348 30.8948 24.9083 30.8948Z" fill="#231E1A"/>
<path d="M26.0163 31.9582C26.0163 32.196 25.8235 32.3888 25.5857 32.3888C25.3478 32.3888 25.155 32.196 25.155 31.9582C25.155 31.7204 25.3478 31.5276 25.5857 31.5276C25.8235 31.5276 26.0163 31.7204 26.0163 31.9582Z" fill="#DDCDC3"/>
<path d="M35.326 30.8948C34.5995 30.8948 34.0105 31.4837 34.0105 32.2103V32.885C34.0105 33.6116 34.5995 34.2005 35.326 34.2005C36.0525 34.2005 36.6415 33.6116 36.6415 32.885V32.2103C36.6415 31.4837 36.0525 30.8948 35.326 30.8948Z" fill="#231E1A"/>
<path d="M36.434 31.9582C36.434 32.196 36.2412 32.3888 36.0034 32.3888C35.7656 32.3888 35.5728 32.196 35.5728 31.9582C35.5728 31.7204 35.7656 31.5276 36.0034 31.5276C36.2412 31.5276 36.434 31.7204 36.434 31.9582Z" fill="#DDCDC3"/>
<path d="M32.1495 54.1754C32.1495 54.1754 25.2815 48.7075 17.5135 49.1992C9.74553 49.6909 3.44653 52.2011 3.44653 52.2011V59.3479H29.4041C29.4041 59.3479 31.8036 62.7424 35.1508 59.3479H55.2288V50.1704C55.2288 50.1704 35.7337 45.1575 32.1495 54.1754Z" fill="#BFC3DD"/>
<path d="M2.59375 59.3479H28.3621" stroke="black" stroke-width="3.75" stroke-miterlimit="10" stroke-linecap="round"/>
<path d="M37.4146 59.3479H55.2287" stroke="black" stroke-width="3.75" stroke-miterlimit="10" stroke-linecap="round"/>
<path d="M35.1511 58.3755C35.1511 59.8167 33.9827 60.9851 32.5415 60.9851C31.1003 60.9851 29.9319 59.8167 29.9319 58.3755" stroke="black" stroke-width="3.75" stroke-miterlimit="10" stroke-linecap="round"/>
</svg>
