<svg width="31" height="30" viewBox="0 0 31 30" fill="none" xmlns="http://www.w3.org/2000/svg">
<path d="M26.3282 3.3938L17.0001 10.3219L18.7251 6.23442L26.3282 3.3938Z" fill="#E2761B" stroke="#E2761B" stroke-width="0.0937499" stroke-linecap="round" stroke-linejoin="round"/>
<path d="M4.79382 3.3938L14.0469 10.3875L12.4063 6.23442L4.79382 3.3938ZM22.9719 19.4532L20.4876 23.2594L25.8032 24.7219L27.3313 19.5375L22.9719 19.4532ZM3.80945 19.5375L5.3282 24.7219L10.6438 23.2594L8.15944 19.4532L3.80945 19.5375Z" fill="#E4761B" stroke="#E4761B" stroke-width="0.0937499" stroke-linecap="round" stroke-linejoin="round"/>
<path d="M10.3438 13.0219L8.86255 15.2625L14.1407 15.4969L13.9532 9.82502L10.3438 13.0219ZM20.7782 13.0219L17.1219 9.7594L17 15.4969L22.2688 15.2625L20.7782 13.0219ZM10.6438 23.2594L13.8125 21.7125L11.075 19.575L10.6438 23.2594ZM17.3094 21.7125L20.4875 23.2594L20.0469 19.575L17.3094 21.7125Z" fill="#E4761B" stroke="#E4761B" stroke-width="0.0937499" stroke-linecap="round" stroke-linejoin="round"/>
<path d="M20.4875 23.2594L17.3094 21.7125L17.5625 23.7844L17.5344 24.6563L20.4875 23.2594ZM10.6438 23.2594L13.5969 24.6563L13.5782 23.7844L13.8125 21.7125L10.6438 23.2594Z" fill="#D7C1B3" stroke="#D7C1B3" stroke-width="0.0937499" stroke-linecap="round" stroke-linejoin="round"/>
<path d="M13.6439 18.2063L11.0001 17.4282L12.8657 16.5751L13.6439 18.2063ZM17.4782 18.2063L18.2564 16.5751L20.1314 17.4282L17.4782 18.2063Z" fill="#233447" stroke="#233447" stroke-width="0.0937499" stroke-linecap="round" stroke-linejoin="round"/>
<path d="M10.6438 23.2594L11.0938 19.4532L8.15942 19.5376L10.6438 23.2594ZM20.0375 19.4532L20.4875 23.2594L22.9719 19.5376L20.0375 19.4532ZM22.2688 15.2626L17 15.4969L17.4875 18.2063L18.2657 16.5751L20.1407 17.4282L22.2688 15.2626ZM11 17.4282L12.875 16.5751L13.6438 18.2063L14.1407 15.4969L8.86255 15.2626L11 17.4282Z" fill="#CD6116" stroke="#CD6116" stroke-width="0.0937499" stroke-linecap="round" stroke-linejoin="round"/>
<path d="M8.86255 15.2626L11.075 19.5751L11 17.4282L8.86255 15.2626ZM20.1407 17.4282L20.0469 19.5751L22.2688 15.2626L20.1407 17.4282ZM14.1407 15.4969L13.6438 18.2063L14.2625 21.4032L14.4032 17.1938L14.1407 15.4969ZM17 15.4969L16.7469 17.1844L16.8594 21.4032L17.4875 18.2063L17 15.4969Z" fill="#E4751F" stroke="#E4751F" stroke-width="0.0937499" stroke-linecap="round" stroke-linejoin="round"/>
<path d="M17.4876 18.2062L16.8595 21.4031L17.3095 21.7125L20.047 19.575L20.1407 17.4281L17.4876 18.2062ZM11.0001 17.4281L11.0751 19.575L13.8126 21.7125L14.2626 21.4031L13.6439 18.2062L11.0001 17.4281Z" fill="#F6851B" stroke="#F6851B" stroke-width="0.0937499" stroke-linecap="round" stroke-linejoin="round"/>
<path d="M17.5344 24.6563L17.5625 23.7844L17.3282 23.5781H13.7938L13.5782 23.7844L13.5969 24.6563L10.6438 23.2594L11.675 24.1031L13.7657 25.5563H17.3563L19.4563 24.1031L20.4875 23.2594L17.5344 24.6563Z" fill="#C0AD9E" stroke="#C0AD9E" stroke-width="0.0937499" stroke-linecap="round" stroke-linejoin="round"/>
<path d="M17.3095 21.7126L16.8595 21.4032H14.2626L13.8126 21.7126L13.5782 23.7844L13.7939 23.5782H17.3282L17.5626 23.7844L17.3095 21.7126Z" fill="#161616" stroke="#161616" stroke-width="0.0937499" stroke-linecap="round" stroke-linejoin="round"/>
<path d="M26.7219 10.7719L27.5188 6.94692L26.3281 3.3938L17.3094 10.0875L20.7782 13.0219L25.6813 14.4563L26.7688 13.1907L26.3 12.8532L27.05 12.1688L26.4688 11.7188L27.2188 11.1469L26.7219 10.7719ZM3.61255 6.94692L4.40942 10.7719L3.90317 11.1469L4.65317 11.7188L4.0813 12.1688L4.8313 12.8532L4.36255 13.1907L5.44067 14.4563L10.3438 13.0219L13.8125 10.0875L4.7938 3.3938L3.61255 6.94692Z" fill="#763D16" stroke="#763D16" stroke-width="0.0937499" stroke-linecap="round" stroke-linejoin="round"/>
<path d="M25.6813 14.4562L20.7782 13.0219L22.2688 15.2625L20.0469 19.575L22.9719 19.5375H27.3313L25.6813 14.4562ZM10.3438 13.0219L5.4407 14.4562L3.80945 19.5375H8.15944L11.0751 19.575L8.86257 15.2625L10.3438 13.0219ZM17.0001 15.4969L17.3094 10.0875L18.7344 6.23438H12.4063L13.8126 10.0875L14.1407 15.4969L14.2532 17.2031L14.2626 21.4031H16.8594L16.8782 17.2031L17.0001 15.4969Z" fill="#F6851B" stroke="#F6851B" stroke-width="0.0937499" stroke-linecap="round" stroke-linejoin="round"/>
</svg>
