<svg width="236" height="235" viewBox="0 0 236 235" fill="none" xmlns="http://www.w3.org/2000/svg">
<path d="M117.91 64.4687C109.834 57.86 99.8333 54.8923 90.5613 60.2118C88.5392 61.372 86.8585 62.3467 85.439 63.1992" stroke="#EDC2B5" stroke-opacity="0.590495" stroke-width="3.7993"/>
<path d="M133.987 75.555C135.331 75.2379 136.762 74.8644 138.254 74.4374" stroke="#6B3C52" stroke-opacity="0.832828" stroke-width="5.50014"/>
<path d="M129.432 44.4184C124.405 35.7994 116.257 31.0434 104.97 37.9997C99.2354 41.534 98.4431 44.895 100.419 46.9965" stroke="#0C5275" stroke-opacity="0.590495" stroke-width="3.7993"/>
<g opacity="0.99952">
<path d="M132.025 44.3004L132.393 55.7349L128.891 55.8476L128.523 44.4131L132.025 44.3004Z" fill="#A5A39A"/>
</g>
<g opacity="0.99952">
<path d="M109.226 76.6786L117.945 83.029L115.59 86.264L106.87 79.9136L109.226 76.6786Z" fill="#562039"/>
</g>
<g opacity="0.553942">
<path d="M152.559 61.2461L147.904 71.2935L144.97 69.9342L149.626 59.8867L152.559 61.2461Z" fill="#DB886E"/>
</g>
<g opacity="0.99952">
<path d="M113.353 62.7173L111.682 53.2509L115.343 52.6045L117.014 62.0708L113.353 62.7173Z" fill="#4C97B9"/>
</g>
<g opacity="0.99952">
<path d="M143.953 54.1009L141.084 65.6668L137.795 64.8511L140.664 53.2852L143.953 54.1009Z" fill="#FDD835"/>
</g>
<g opacity="0.99952">
<path d="M111.836 76.0896L103.481 68.3603L105.554 66.5808L113.909 74.3101L111.836 76.0896Z" fill="black"/>
</g>
<g opacity="0.724766">
<path d="M114.545 56.6057C115.274 56.2835 116.128 56.6137 116.45 57.3426C116.772 58.0715 116.442 58.9249 115.713 59.247C114.984 59.5692 114.131 59.239 113.808 58.5101C113.486 57.7812 113.816 56.9279 114.545 56.6057Z" fill="black"/>
</g>
<g opacity="0.724766">
<path d="M114.019 73.6155C114.748 73.2933 115.602 73.6235 115.924 74.3524C116.246 75.0813 115.916 75.9346 115.187 76.2568C114.458 76.579 113.605 76.2488 113.282 75.5199C112.96 74.791 113.291 73.9376 114.019 73.6155Z" fill="#A5A39A"/>
</g>
<g opacity="0.724766">
<path d="M132.416 61.487C133.145 61.1649 133.999 61.4951 134.321 62.224C134.643 62.9528 134.313 63.8062 133.584 64.1284C132.855 64.4506 132.002 64.1204 131.679 63.3915C131.357 62.6626 131.687 61.8092 132.416 61.487Z" fill="#562039"/>
</g>
<g opacity="0.724766">
<path d="M128.68 51.4001C129.408 51.078 130.262 51.4082 130.584 52.1371C130.906 52.8659 130.576 53.7193 129.847 54.0415C129.118 54.3637 128.265 54.0334 127.943 53.3046C127.62 52.5757 127.951 51.7223 128.68 51.4001Z" fill="#DB886E"/>
</g>
<g opacity="0.724766">
<path d="M137.575 44.1428C138.303 43.8206 139.157 44.1509 139.479 44.8797C139.801 45.6086 139.471 46.462 138.742 46.7842C138.013 47.1063 137.16 46.7761 136.838 46.0472C136.515 45.3184 136.846 44.465 137.575 44.1428Z" fill="#FDD835"/>
</g>
<g opacity="0.724766">
<path d="M125.476 62.6399C126.205 62.3177 127.058 62.6479 127.38 63.3768C127.703 64.1057 127.372 64.9591 126.643 65.2812C125.915 65.6034 125.061 65.2732 124.739 64.5443C124.417 63.8154 124.747 62.9621 125.476 62.6399Z" fill="#4C97B9"/>
</g>
<mask id="mask0_167_2088" style="mask-type:luminance" maskUnits="userSpaceOnUse" x="0" y="0" width="236" height="235">
<path d="M12.1807 0.163086L235.201 11.8836L223.48 234.904L0.460192 223.183L12.1807 0.163086Z" fill="white"/>
</mask>
<g mask="url(#mask0_167_2088)">
<path d="M141.574 121.679C140.11 117.386 139.144 113.63 135.541 107.872C134.02 105.442 133.44 102.155 133.349 98.6176C133.113 89.4646 136.151 78.6344 134.648 76.6293C132.946 74.3578 130.675 73.9387 128.496 74.3919C125.623 74.9894 122.912 77.1034 121.879 78.4875C121.527 78.9588 121.176 79.3987 120.837 79.8686C119.422 81.8255 118.193 84.3054 117.802 91.7632C117.315 101.012 118.114 101.897 118.07 102.738C118.025 103.579 117.849 106.942 97.5848 106.72C93.8122 106.679 89.8257 109.685 89.6048 113.889C89.3838 118.093 90.0937 120.66 90.0937 120.66C90.0937 120.66 88.0036 121.299 87.3895 123.89C85.2185 133.05 90.1851 134.998 90.1851 134.998C90.1851 134.998 87.5692 136.546 87.4809 138.228C87.0832 145.795 92.0497 147.742 92.0497 147.742C92.0497 147.742 90.188 151.017 90.8979 153.584C91.6078 156.151 93.9585 159.646 97.2843 160.664C100.61 161.682 109.877 162.169 111.607 161.417C113.336 160.665 117.637 159.205 117.637 159.205C117.637 159.205 125.685 159.706 130.362 158.187C141.536 154.559 142.463 136.902 142.596 134.379C142.729 131.857 143.038 125.971 141.574 121.679Z" fill="#FBD4BA"/>
<path d="M90.1651 120.456C90.3209 120.74 90.4617 121.009 90.6178 121.255C90.7759 121.499 90.9274 121.741 91.1098 121.964C91.2887 122.191 91.4798 122.42 91.7086 122.645C91.8225 122.758 91.9388 122.879 92.0707 122.994C92.2022 123.11 92.3419 123.229 92.4914 123.353C92.6529 123.487 92.9062 123.676 93.2171 123.913C93.3766 124.026 93.5516 124.15 93.739 124.283L93.8031 124.328C93.8359 124.352 93.8705 124.373 93.9043 124.396C93.9724 124.44 94.041 124.485 94.1102 124.531C94.2491 124.62 94.3874 124.716 94.5327 124.804C94.8244 124.98 95.1201 125.167 95.4351 125.337C96.0571 125.69 96.7293 126.02 97.4358 126.325C98.1406 126.634 98.8865 126.904 99.6547 127.138C101.192 127.612 102.819 127.901 104.408 128.075C105.998 128.25 107.552 128.319 108.981 128.364C109.696 128.384 110.38 128.402 111.026 128.42C111.674 128.434 112.287 128.44 112.854 128.426C113.421 128.412 113.941 128.379 114.4 128.332C114.859 128.286 115.258 128.217 115.584 128.158C115.747 128.123 115.891 128.091 116.017 128.064C116.142 128.032 116.248 128.005 116.334 127.983C116.42 127.961 116.486 127.943 116.53 127.929C116.573 127.915 116.596 127.908 116.596 127.908C116.596 127.908 116.686 127.881 116.857 127.829C117.026 127.768 117.272 127.691 117.589 127.553C117.903 127.413 118.297 127.225 118.699 126.879C118.899 126.707 119.097 126.488 119.259 126.224C119.419 125.961 119.539 125.663 119.616 125.353C119.695 125.043 119.734 124.72 119.748 124.394C119.756 124.23 119.757 124.066 119.747 123.901C119.74 123.736 119.732 123.568 119.725 123.397C119.658 122.718 119.53 122.002 119.294 121.288C119.055 120.576 118.73 119.865 118.325 119.18C117.92 118.494 117.425 117.846 116.879 117.236C116.33 116.629 115.726 116.059 115.071 115.557C114.419 115.052 113.722 114.605 113.017 114.217C112.312 113.825 111.589 113.497 110.878 113.207C110.524 113.059 110.168 112.932 109.819 112.804C109.644 112.744 109.471 112.684 109.299 112.625C109.213 112.595 109.127 112.569 109.041 112.542C108.966 112.518 108.89 112.494 108.816 112.47C107.844 112.166 107.038 111.961 106.636 111.861C105.148 111.498 104.266 111.49 102.962 111.53C104.134 112.107 104.938 112.447 106.394 112.818C106.787 112.92 107.576 113.123 108.517 113.419C108.59 113.442 108.663 113.465 108.736 113.488C108.818 113.515 108.903 113.539 108.985 113.569C109.151 113.626 109.318 113.683 109.487 113.741C109.822 113.864 110.165 113.986 110.504 114.129C111.184 114.406 111.872 114.718 112.539 115.089C113.208 115.457 113.853 115.871 114.461 116.342C115.072 116.809 115.633 117.339 116.141 117.901C116.647 118.466 117.104 119.063 117.473 119.689C117.842 120.314 118.136 120.958 118.352 121.597C118.564 122.239 118.677 122.875 118.738 123.477C118.744 123.629 118.751 123.777 118.757 123.924C118.766 124.071 118.765 124.213 118.759 124.351C118.747 124.626 118.715 124.883 118.657 125.111C118.6 125.341 118.517 125.54 118.415 125.708C118.313 125.874 118.189 126.014 118.05 126.133C117.774 126.373 117.46 126.531 117.195 126.648C116.927 126.764 116.698 126.836 116.549 126.891C116.396 126.937 116.315 126.962 116.315 126.962C116.315 126.962 116.294 126.968 116.255 126.98C116.216 126.994 116.156 127.01 116.078 127.029C116 127.049 115.904 127.074 115.791 127.103C115.676 127.128 115.543 127.156 115.395 127.188C115.095 127.242 114.728 127.306 114.297 127.348C113.867 127.393 113.375 127.424 112.831 127.436C112.286 127.45 111.689 127.444 111.048 127.429C110.406 127.412 109.724 127.393 109.013 127.373C107.593 127.328 106.064 127.258 104.517 127.087C102.971 126.918 101.407 126.638 99.9441 126.187C99.2124 125.964 98.5015 125.707 97.8294 125.412C97.1558 125.121 96.5142 124.807 95.9208 124.469C95.62 124.307 95.3381 124.129 95.0595 123.962C94.9209 123.877 94.789 123.786 94.6564 123.701C94.5904 123.658 94.5249 123.615 94.4599 123.572C94.4275 123.551 94.3946 123.53 94.3632 123.508L94.302 123.465C94.1229 123.338 93.9557 123.22 93.8032 123.113C93.5061 122.887 93.2633 122.709 93.108 122.582C92.9643 122.465 92.8266 122.357 92.6934 122.255C92.5614 122.152 92.4356 122.054 92.3146 121.96C92.0669 121.776 91.8414 121.603 91.6122 121.442C91.3792 121.285 91.1613 121.122 90.9197 120.966C90.6805 120.804 90.4336 120.637 90.1651 120.456Z" fill="black"/>
<path d="M90.1832 135.037C91.0183 136.038 91.6569 136.682 92.9993 137.45C93.1841 137.549 93.4567 137.706 93.8062 137.88C93.8933 137.924 93.9844 137.97 94.0793 138.019C94.1756 138.065 94.2756 138.112 94.3793 138.162C94.4689 138.204 94.56 138.247 94.6527 138.291C94.7527 138.335 94.8539 138.38 94.9568 138.426C95.0597 138.471 95.1641 138.517 95.2698 138.563C95.3769 138.607 95.4853 138.651 95.5949 138.695C96.4723 139.048 97.4546 139.378 98.4937 139.619C98.7527 139.674 99.0207 139.737 99.2768 139.785C99.5346 139.835 99.7934 139.885 100.052 139.936C100.571 140.034 101.09 140.132 101.604 140.229C103.658 140.614 105.629 140.948 107.09 141.166C108.55 141.385 109.5 141.495 109.5 141.495C109.5 141.495 109.641 141.512 109.898 141.542C110.155 141.572 110.529 141.613 110.994 141.659C111.925 141.744 113.223 141.857 114.705 141.823C115.446 141.798 116.235 141.743 117.043 141.556C117.446 141.46 117.855 141.331 118.252 141.135C118.649 140.942 119.033 140.665 119.335 140.302C119.643 139.944 119.836 139.498 119.933 139.067C120.031 138.633 120.041 138.209 120.012 137.813C119.949 137.019 119.754 136.321 119.556 135.703C119.369 135.133 119.189 134.687 119.043 134.337C118.898 133.987 118.783 133.734 118.703 133.561C118.053 132.164 117.488 131.478 116.61 130.512C116.934 131.778 117.187 132.608 117.804 133.968C117.879 134.136 117.989 134.382 118.127 134.718C118.267 135.053 118.437 135.48 118.612 136.011C118.796 136.585 118.968 137.226 119.02 137.884C119.071 138.541 118.967 139.203 118.57 139.667C118.184 140.142 117.512 140.426 116.816 140.589C116.114 140.752 115.377 140.809 114.677 140.832C113.272 140.866 111.999 140.757 111.088 140.675C110.632 140.63 110.264 140.591 110.011 140.561C109.758 140.531 109.619 140.515 109.619 140.515C109.619 140.515 108.684 140.406 107.237 140.187C105.79 139.971 103.832 139.637 101.786 139.253C101.274 139.156 100.757 139.058 100.241 138.96C99.9824 138.909 99.7244 138.859 99.4675 138.809C99.2082 138.76 98.9678 138.703 98.7192 138.651C97.7371 138.423 96.8035 138.11 95.9665 137.773C95.8619 137.731 95.7584 137.689 95.6563 137.648C95.5553 137.603 95.4555 137.559 95.3572 137.516C95.2589 137.473 95.1619 137.43 95.0663 137.388C94.9777 137.346 94.8905 137.305 94.8045 137.264C94.7053 137.217 94.6093 137.172 94.5171 137.128C94.4259 137.082 94.3385 137.037 94.255 136.995C93.9193 136.83 93.6566 136.68 93.4783 136.587C92.1807 135.861 91.3933 135.531 90.1832 135.037Z" fill="black"/>
<path d="M92.3909 148.152C93.5172 148.814 94.2507 149.256 95.6606 149.797C95.8999 149.89 96.2891 150.041 97.098 150.355C98.014 150.709 99.2514 151.19 100.631 151.627C101.323 151.839 102.048 152.045 102.786 152.203C102.97 152.247 103.157 152.277 103.341 152.314C103.527 152.35 103.711 152.384 103.891 152.412C104.253 152.47 104.609 152.531 104.961 152.581C106.364 152.792 107.656 152.93 108.598 153.001C108.834 153.021 109.047 153.034 109.235 153.044C109.423 153.054 109.585 153.066 109.718 153.071C109.984 153.081 110.131 153.086 110.131 153.086C110.131 153.086 110.625 153.111 111.437 153.103C112.249 153.094 113.385 153.055 114.656 152.82C115.29 152.7 115.958 152.526 116.619 152.256C116.947 152.114 117.277 151.96 117.588 151.758C117.9 151.559 118.198 151.327 118.463 151.057C118.728 150.788 118.958 150.479 119.132 150.146C119.308 149.814 119.43 149.462 119.502 149.113C119.644 148.413 119.598 147.744 119.488 147.171C119.365 146.554 119.192 146.082 119.042 145.719C118.89 145.356 118.756 145.101 118.665 144.927C118.286 144.225 117.89 143.738 117.465 143.331C117.039 142.928 116.576 142.598 115.99 142.307C116.37 142.838 116.623 143.303 116.897 143.781C117.168 144.259 117.457 144.75 117.792 145.388C117.873 145.546 117.993 145.776 118.126 146.099C118.259 146.421 118.409 146.838 118.512 147.358C118.605 147.842 118.636 148.382 118.528 148.911C118.421 149.44 118.162 149.951 117.751 150.363C117.345 150.779 116.809 151.101 116.238 151.339C115.663 151.574 115.058 151.735 114.472 151.845C113.296 152.064 112.207 152.105 111.426 152.115C110.644 152.123 110.165 152.1 110.165 152.1C110.165 152.1 110.022 152.094 109.764 152.084C109.635 152.079 109.478 152.068 109.295 152.058C109.112 152.048 108.904 152.035 108.674 152.015C107.755 151.945 106.489 151.808 105.108 151.599C104.762 151.55 104.41 151.49 104.054 151.432C103.874 151.405 103.699 151.372 103.524 151.337C103.349 151.302 103.172 151.274 102.997 151.232C102.295 151.081 101.597 150.883 100.928 150.678C99.5918 150.254 98.3708 149.781 97.456 149.429C96.6436 149.117 96.2526 148.967 96.0124 148.875C94.5851 148.343 93.6954 148.208 92.3909 148.152Z" fill="black"/>
<path d="M117.055 154.19C117.357 154.769 117.562 155.262 117.719 155.761C117.796 156.01 117.853 156.263 117.885 156.525C117.915 156.788 117.916 157.06 117.852 157.352C117.825 157.449 117.796 157.58 117.708 157.758C117.623 157.936 117.486 158.166 117.224 158.441C117.089 158.58 116.889 158.758 116.649 158.931C116.41 159.104 116.132 159.272 115.866 159.413C115.332 159.694 114.854 159.871 114.854 159.871C114.854 159.871 114.46 160.027 113.936 160.185C113.414 160.347 112.762 160.503 112.293 160.598C111.183 160.818 110.482 160.882 110.119 160.92C109.383 160.99 108.808 161.053 108.26 161.122C107.986 161.157 107.718 161.193 107.439 161.222C107.16 161.248 106.871 161.277 106.547 161.242C106.818 161.427 107.111 161.543 107.391 161.637C107.674 161.73 107.953 161.798 108.242 161.847C108.82 161.943 109.435 161.968 110.21 161.903C110.592 161.866 111.325 161.803 112.491 161.572C112.983 161.474 113.67 161.309 114.226 161.134C114.784 160.963 115.211 160.791 115.211 160.791C115.211 160.791 115.243 160.779 115.301 160.757C115.358 160.734 115.442 160.7 115.544 160.658C115.748 160.571 116.028 160.45 116.328 160.291C116.628 160.134 116.947 159.943 117.232 159.737C117.518 159.532 117.767 159.31 117.94 159.128C118.279 158.773 118.48 158.444 118.604 158.181C118.731 157.917 118.778 157.715 118.816 157.564C118.912 157.113 118.875 156.695 118.782 156.345C118.687 155.993 118.541 155.698 118.37 155.443C118.022 154.933 117.592 154.56 117.055 154.19Z" fill="black"/>
<path d="M134.081 135.654C133.838 135.873 133.589 136.021 133.344 136.13C133.098 136.238 132.856 136.308 132.606 136.361C132.107 136.462 131.576 136.508 130.879 136.473C130.644 136.456 130.254 136.445 129.462 136.24C129.066 136.135 128.539 135.959 127.995 135.702C127.448 135.451 126.887 135.12 126.399 134.776C125.911 134.432 125.496 134.076 125.209 133.803C125.063 133.669 124.954 133.551 124.874 133.474C124.798 133.393 124.756 133.348 124.756 133.348C124.756 133.348 124.721 133.311 124.657 133.242C124.593 133.173 124.506 133.069 124.394 132.942C124.178 132.683 123.889 132.312 123.606 131.869C123.322 131.427 123.044 130.913 122.828 130.392C122.608 129.872 122.446 129.349 122.339 128.906C122.211 128.37 122.147 127.927 122.114 127.574C122.093 127.399 122.088 127.245 122.078 127.114C122.068 126.982 122.068 126.872 122.066 126.783C122.049 126.059 122.059 125.489 122.056 124.937C122.056 124.384 122.043 123.848 122.064 123.195C121.74 123.762 121.508 124.27 121.339 124.83C121.173 125.391 121.069 126.009 121.079 126.803C121.081 126.901 121.08 127.021 121.09 127.165C121.099 127.31 121.105 127.478 121.127 127.671C121.162 128.059 121.232 128.547 121.373 129.139C121.49 129.628 121.669 130.205 121.912 130.779C122.151 131.354 122.458 131.919 122.771 132.404C123.083 132.891 123.401 133.296 123.638 133.58C123.76 133.718 123.857 133.832 123.927 133.907C123.997 133.982 124.035 134.023 124.035 134.023C124.035 134.023 124.081 134.072 124.164 134.161C124.251 134.246 124.371 134.374 124.529 134.521C124.842 134.82 125.294 135.209 125.827 135.587C126.36 135.963 126.972 136.327 127.575 136.603C128.174 136.886 128.76 137.082 129.206 137.2C130.098 137.429 130.556 137.443 130.831 137.46C131.649 137.494 132.318 137.337 132.869 137.036C133.416 136.735 133.856 136.271 134.081 135.654Z" fill="black"/>
</g>
</svg>
